<mxfile host="app.diagrams.net" agent="Mozilla/5.0 (Windows NT 10.0; Win64; x64) AppleWebKit/537.36 (KHTML, like Gecko) Chrome/132.0.0.0 Safari/537.36" version="26.0.12">
  <diagram name="페이지-1" id="1bs5c2Zkgu-vmVltRX4C">
    <mxGraphModel dx="1434" dy="772" grid="1" gridSize="10" guides="1" tooltips="1" connect="1" arrows="1" fold="1" page="1" pageScale="1" pageWidth="827" pageHeight="1169" math="0" shadow="0">
      <root>
        <mxCell id="0" />
        <mxCell id="1" parent="0" />
        <mxCell id="Mpi_9Wob-K9fAkSLmtZF-26" value="" style="rounded=1;whiteSpace=wrap;html=1;dashed=1;" vertex="1" parent="1">
          <mxGeometry x="200" y="150" width="240" height="230" as="geometry" />
        </mxCell>
        <mxCell id="Mpi_9Wob-K9fAkSLmtZF-1" value="" style="rounded=0;whiteSpace=wrap;html=1;fillColor=#7EA6E0;" vertex="1" parent="1">
          <mxGeometry x="210" y="280" width="40" height="20" as="geometry" />
        </mxCell>
        <mxCell id="Mpi_9Wob-K9fAkSLmtZF-2" value="" style="rounded=0;whiteSpace=wrap;html=1;fillColor=#7EA6E0;" vertex="1" parent="1">
          <mxGeometry x="210" y="250" width="40" height="20" as="geometry" />
        </mxCell>
        <mxCell id="Mpi_9Wob-K9fAkSLmtZF-3" value="" style="rounded=0;whiteSpace=wrap;html=1;fillColor=#7EA6E0;" vertex="1" parent="1">
          <mxGeometry x="210" y="220" width="40" height="20" as="geometry" />
        </mxCell>
        <mxCell id="Mpi_9Wob-K9fAkSLmtZF-5" value="" style="rounded=0;whiteSpace=wrap;html=1;fillColor=#7EA6E0;" vertex="1" parent="1">
          <mxGeometry x="270" y="280" width="40" height="20" as="geometry" />
        </mxCell>
        <mxCell id="Mpi_9Wob-K9fAkSLmtZF-6" value="" style="rounded=0;whiteSpace=wrap;html=1;fillColor=#7EA6E0;" vertex="1" parent="1">
          <mxGeometry x="270" y="250" width="40" height="20" as="geometry" />
        </mxCell>
        <mxCell id="Mpi_9Wob-K9fAkSLmtZF-9" value="" style="rounded=0;whiteSpace=wrap;html=1;fillColor=#7EA6E0;" vertex="1" parent="1">
          <mxGeometry x="330" y="280" width="40" height="20" as="geometry" />
        </mxCell>
        <mxCell id="Mpi_9Wob-K9fAkSLmtZF-13" value="" style="rounded=0;whiteSpace=wrap;html=1;fillColor=#7EA6E0;" vertex="1" parent="1">
          <mxGeometry x="393.5" y="280" width="40" height="20" as="geometry" />
        </mxCell>
        <mxCell id="Mpi_9Wob-K9fAkSLmtZF-14" value="" style="rounded=0;whiteSpace=wrap;html=1;fillColor=#7EA6E0;" vertex="1" parent="1">
          <mxGeometry x="393.5" y="250" width="40" height="20" as="geometry" />
        </mxCell>
        <mxCell id="Mpi_9Wob-K9fAkSLmtZF-15" value="" style="rounded=0;whiteSpace=wrap;html=1;fillColor=#7EA6E0;" vertex="1" parent="1">
          <mxGeometry x="393.5" y="220" width="40" height="20" as="geometry" />
        </mxCell>
        <mxCell id="Mpi_9Wob-K9fAkSLmtZF-16" value="" style="rounded=0;whiteSpace=wrap;html=1;fillColor=#7EA6E0;" vertex="1" parent="1">
          <mxGeometry x="393.5" y="190" width="40" height="20" as="geometry" />
        </mxCell>
        <mxCell id="Mpi_9Wob-K9fAkSLmtZF-17" value="" style="endArrow=classic;html=1;rounded=0;endFill=1;" edge="1" parent="1">
          <mxGeometry width="50" height="50" relative="1" as="geometry">
            <mxPoint x="40" y="320" as="sourcePoint" />
            <mxPoint x="600" y="320" as="targetPoint" />
          </mxGeometry>
        </mxCell>
        <mxCell id="Mpi_9Wob-K9fAkSLmtZF-18" value="" style="endArrow=none;html=1;rounded=0;" edge="1" parent="1">
          <mxGeometry width="50" height="50" relative="1" as="geometry">
            <mxPoint x="320" y="340" as="sourcePoint" />
            <mxPoint x="320" y="300" as="targetPoint" />
          </mxGeometry>
        </mxCell>
        <mxCell id="Mpi_9Wob-K9fAkSLmtZF-19" value="" style="endArrow=none;html=1;rounded=0;" edge="1" parent="1">
          <mxGeometry width="50" height="50" relative="1" as="geometry">
            <mxPoint x="440" y="340" as="sourcePoint" />
            <mxPoint x="440" y="300" as="targetPoint" />
          </mxGeometry>
        </mxCell>
        <mxCell id="Mpi_9Wob-K9fAkSLmtZF-20" value="" style="endArrow=none;html=1;rounded=0;" edge="1" parent="1">
          <mxGeometry width="50" height="50" relative="1" as="geometry">
            <mxPoint x="200" y="340" as="sourcePoint" />
            <mxPoint x="200" y="300" as="targetPoint" />
          </mxGeometry>
        </mxCell>
        <mxCell id="Mpi_9Wob-K9fAkSLmtZF-21" value="" style="endArrow=none;html=1;rounded=0;" edge="1" parent="1">
          <mxGeometry width="50" height="50" relative="1" as="geometry">
            <mxPoint x="80" y="340" as="sourcePoint" />
            <mxPoint x="80" y="300" as="targetPoint" />
          </mxGeometry>
        </mxCell>
        <mxCell id="Mpi_9Wob-K9fAkSLmtZF-22" value="" style="endArrow=none;html=1;rounded=0;" edge="1" parent="1">
          <mxGeometry width="50" height="50" relative="1" as="geometry">
            <mxPoint x="560" y="340" as="sourcePoint" />
            <mxPoint x="560" y="300" as="targetPoint" />
          </mxGeometry>
        </mxCell>
        <mxCell id="Mpi_9Wob-K9fAkSLmtZF-23" value="2:00:00" style="text;html=1;align=center;verticalAlign=middle;resizable=0;points=[];autosize=1;strokeColor=none;fillColor=none;" vertex="1" parent="1">
          <mxGeometry x="50" y="340" width="60" height="30" as="geometry" />
        </mxCell>
        <mxCell id="Mpi_9Wob-K9fAkSLmtZF-24" value="2:01:00" style="text;html=1;align=center;verticalAlign=middle;resizable=0;points=[];autosize=1;strokeColor=none;fillColor=none;" vertex="1" parent="1">
          <mxGeometry x="290" y="340" width="60" height="30" as="geometry" />
        </mxCell>
        <mxCell id="Mpi_9Wob-K9fAkSLmtZF-25" value="2:02:00" style="text;html=1;align=center;verticalAlign=middle;resizable=0;points=[];autosize=1;strokeColor=none;fillColor=none;" vertex="1" parent="1">
          <mxGeometry x="530" y="340" width="60" height="30" as="geometry" />
        </mxCell>
        <mxCell id="Mpi_9Wob-K9fAkSLmtZF-27" value="" style="endArrow=classic;startArrow=classic;html=1;rounded=0;" edge="1" parent="1">
          <mxGeometry width="50" height="50" relative="1" as="geometry">
            <mxPoint x="200" y="130" as="sourcePoint" />
            <mxPoint x="440" y="130" as="targetPoint" />
          </mxGeometry>
        </mxCell>
        <mxCell id="Mpi_9Wob-K9fAkSLmtZF-28" value="10개 요청" style="edgeLabel;html=1;align=center;verticalAlign=middle;resizable=0;points=[];" vertex="1" connectable="0" parent="Mpi_9Wob-K9fAkSLmtZF-27">
          <mxGeometry x="0.0583" y="-1" relative="1" as="geometry">
            <mxPoint x="-7" as="offset" />
          </mxGeometry>
        </mxCell>
      </root>
    </mxGraphModel>
  </diagram>
</mxfile>
